<svg id="ecec95ec-4997-4679-8994-4569262cc453" data-name="Capa 1" xmlns="http://www.w3.org/2000/svg" viewBox="0 0 781.32 900.03"><defs><style>.b9e23bb9-093a-4b19-9108-862748c4a4f4{fill:#7c32f0;}</style></defs><path class="b9e23bb9-093a-4b19-9108-862748c4a4f4" d="M542.85,560.23l-6,2.88a1.56,1.56,0,0,1-.93.13,2.85,2.85,0,0,1-2.29-2.78V526c0-1.14-.35-3.1,1.64-4l7-3.9c3-1.43,3.11.79,3.11,2.93l.29,36.41C545.68,559,545,559.28,542.85,560.23Z" transform="translate(-149.23 -90.42)"/><path d="M557.5,556.14l-5.16,0c-2.78,0-2.76-1.09-2.76-2.28V534c0-1-.3-2.67,1.41-3.44l6-3.37c2.55-1.22,2.67.69,2.67,2.53v21.49C559.69,555.36,559.94,556.14,557.5,556.14Z" transform="translate(-149.23 -90.42)"/><path d="M528,556.14l-5.16,0c-2.79,0-2.76-1.09-2.76-2.28V534.05c0-1-.3-2.67,1.41-3.45l6-3.36c2.56-1.22,2.68.69,2.68,2.53v21.48C530.19,555.36,530.45,556.14,528,556.14Z" transform="translate(-149.23 -90.42)"/><path class="b9e23bb9-093a-4b19-9108-862748c4a4f4" d="M598.42,930.62l-118,56.73A30,30,0,0,1,462.19,990a56.09,56.09,0,0,1-45.11-54.81V255.07c0-22.34-6.91-61,32.18-78.77l138.14-77c58.49-28.07,61.28,15.72,61.28,57.75l5.59,717.73C654.12,905.49,639.86,912,598.42,930.62Z" transform="translate(-149.23 -90.42)"/><path class="b9e23bb9-093a-4b19-9108-862748c4a4f4" d="M887.19,850l-101.69.73c-55,0-54.52-21.6-54.52-45V414.37c0-19.25-5.88-52.61,27.77-67.89l119-66.28c50.4-24.1,52.75,13.52,52.75,49.82l-.29,423.52C930.25,834.66,935.24,850,887.19,850Z" transform="translate(-149.23 -90.42)"/><path class="b9e23bb9-093a-4b19-9108-862748c4a4f4" d="M305.83,850l-101.69.73c-55,0-54.52-21.6-54.52-45V414.52c0-19.25-5.88-52.61,27.77-67.9l119-66.27c50.4-24.11,52.76,13.52,52.76,49.81l-.3,423.53C348.74,834.66,353.89,850,305.83,850Z" transform="translate(-149.23 -90.42)"/></svg>